<svg width="40" height="40" viewBox="0 0 40 40" fill="none" xmlns="http://www.w3.org/2000/svg">
<path d="M27.8364 25.202C30.4157 22.4841 32.0588 18.6447 32.0588 14.9796C32.0588 8.31894 26.6619 2.91882 19.999 2.91882C13.3383 2.91882 7.93992 8.31723 7.93992 14.9796C7.93992 16.6271 8.28604 18.3032 8.88663 19.9033C10.3684 23.2418 13.2775 25.8348 16.9614 26.7767C17.6915 25.8749 18.7922 25.3345 19.9992 25.3345C22.164 25.3345 23.9264 27.0954 23.9264 29.2609C23.9264 31.4266 22.164 33.1861 19.9992 33.1861C18.4578 33.1861 17.0946 32.287 16.4551 30.9446C13.2885 30.2477 10.5112 28.6581 8.35302 26.4762C3.6014 28.5065 0.519531 31.7392 0.519531 35.3889C0.519531 41.5375 39.4802 41.5375 39.4802 35.3889C39.4802 30.8341 34.6904 26.9253 27.8364 25.202Z" fill="#2C2963"/>
<path d="M17.512 29.7326C17.7347 30.9072 18.7616 31.7955 19.9977 31.7955C21.3983 31.7955 22.5332 30.6598 22.5332 29.2606C22.5332 27.8615 21.3983 26.7258 19.9994 26.7258C18.9231 26.7258 18.0099 27.3988 17.6415 28.3452C11.2717 27.2247 6.41429 21.6638 6.41429 14.9779C6.41429 7.48663 12.5096 1.39158 19.9991 1.39158C27.4924 1.39158 33.5862 7.48663 33.5862 14.9779H34.9763C34.9763 6.72008 28.2577 0 19.9991 0C11.7413 0 5.02246 6.71861 5.02246 14.9779C5.02124 22.3888 10.4368 28.542 17.512 29.7326Z" fill="#092D47"/>
</svg>
