<svg width="40" height="40" viewBox="0 0 40 40" fill="none" xmlns="http://www.w3.org/2000/svg">
<g clip-path="url(#clip0_191_2087)">
<path d="M39.1883 33.705V37.1443C39.1883 38.7188 37.9071 40 36.3316 40H3.66775C2.09326 40 0.812012 38.7188 0.812012 37.1443V33.705C0.812012 32.1305 2.09326 30.8492 3.66775 30.8492H10.7008V29.0779H4.00528C2.36584 29.0779 1.03342 27.7445 1.03342 26.1051V2.97186C1.03342 1.3334 2.36584 0 4.00528 0H35.995C37.6335 0 38.9669 1.3334 38.9669 2.97186V26.1051C38.9669 27.7445 37.6335 29.0779 35.995 29.0779H29.2985V30.8492H36.3316C37.9071 30.8492 39.1883 32.1305 39.1883 33.705ZM37.7122 37.1443V33.705C37.7122 32.9443 37.0933 32.3253 36.3316 32.3253H3.66775C2.90707 32.3253 2.2881 32.9443 2.2881 33.705V37.1443C2.2881 37.9049 2.90707 38.5239 3.66775 38.5239H36.3316C37.0933 38.5239 37.7122 37.9049 37.7122 37.1443ZM37.4908 26.1051V2.97186C37.4908 2.14722 36.8197 1.47609 35.995 1.47609H4.00528C3.18064 1.47609 2.50951 2.14722 2.50951 2.97186V26.1051C2.50951 26.9307 3.18064 27.6018 4.00528 27.6018H35.995C36.8197 27.6018 37.4908 26.9307 37.4908 26.1051ZM27.8224 30.8492V29.0779H12.1769V30.8492H27.8224Z" fill="#2C2963"/>
<path d="M37.7122 33.705V37.1443C37.7122 37.9049 37.0932 38.5239 36.3316 38.5239H3.66774C2.90706 38.5239 2.28809 37.9049 2.28809 37.1443V33.705C2.28809 32.9443 2.90706 32.3253 3.66774 32.3253H36.3316C37.0932 32.3253 37.7122 32.9443 37.7122 33.705ZM35.7195 35.4241C35.7195 35.0167 35.3889 34.6861 34.9815 34.6861H32.7673C32.3599 34.6861 32.0293 35.0167 32.0293 35.4241C32.0293 35.8325 32.3599 36.1622 32.7673 36.1622H34.9815C35.3889 36.1622 35.7195 35.8325 35.7195 35.4241ZM18.5979 35.4241C18.5979 35.0167 18.2672 34.6861 17.8598 34.6861H5.16547C4.75807 34.6861 4.42743 35.0167 4.42743 35.4241C4.42743 35.8325 4.75807 36.1622 5.16547 36.1622H17.8598C18.2672 36.1622 18.5979 35.8325 18.5979 35.4241Z" fill="#2C2963"/>
<path d="M37.4906 2.97184V26.1051C37.4906 26.9307 36.8195 27.6018 35.9948 27.6018H4.00505C3.18041 27.6018 2.50928 26.9307 2.50928 26.1051V2.97184C2.50928 2.1472 3.18041 1.47607 4.00505 1.47607H35.9948C36.8195 1.47607 37.4906 2.1472 37.4906 2.97184ZM36.0145 25.3877V3.69021C36.0145 3.28281 35.6838 2.95216 35.2765 2.95216H4.72341C4.31502 2.95216 3.98536 3.28281 3.98536 3.69021V25.3877C3.98536 25.7951 4.31502 26.1257 4.72341 26.1257H35.2765C35.6838 26.1257 36.0145 25.7951 36.0145 25.3877Z" fill="#2C2963"/>
<path d="M36.015 3.69022V25.3877C36.015 25.7951 35.6843 26.1258 35.2769 26.1258H4.72388C4.3155 26.1258 3.98584 25.7951 3.98584 25.3877V3.69022C3.98584 3.28282 4.3155 2.95218 4.72388 2.95218H35.2769C35.6843 2.95218 36.015 3.28282 36.015 3.69022ZM34.5389 24.6497V21.6001H28.6729C28.3806 22.3194 27.6741 22.8292 26.8504 22.8292C25.765 22.8292 24.8823 21.9465 24.8823 20.8611C24.8823 19.7766 25.765 18.8929 26.8504 18.8929C27.6741 18.8929 28.3806 19.4037 28.6739 20.124H34.5389V7.72388H23.3806L21.5257 9.57981C21.6349 9.82484 21.6979 10.0964 21.6979 10.3818C21.6979 11.4663 20.8142 12.3499 19.7298 12.3499C18.6444 12.3499 17.7617 11.4663 17.7617 10.3818C17.7617 9.2964 18.6444 8.4137 19.7298 8.4137C19.9886 8.4137 20.2346 8.46487 20.4619 8.55639L22.554 6.46428C22.6918 6.32553 22.8798 6.24779 23.0756 6.24779H34.5389V4.42827H5.46193V10.8738H10.2366L12.0925 9.01791C11.9833 8.77288 11.9203 8.50128 11.9203 8.21591C11.9203 7.13147 12.803 6.24779 13.8884 6.24779C14.9738 6.24779 15.8565 7.13147 15.8565 8.21591C15.8565 9.30132 14.9738 10.184 13.8884 10.184C13.6296 10.184 13.3826 10.1329 13.1563 10.0413L11.0642 12.1334C10.9264 12.2722 10.7384 12.3499 10.5426 12.3499H5.46193V13.8014H25.7424C26.0346 13.0811 26.7412 12.5704 27.5658 12.5704C28.6503 12.5704 29.534 13.454 29.534 14.5385C29.534 15.6239 28.6503 16.5066 27.5658 16.5066C26.7412 16.5066 26.0356 15.9969 25.7424 15.2775H5.46193V16.729H17.0866C17.2824 16.729 17.4704 16.8067 17.6082 16.9445L19.6993 19.0356C19.9266 18.9451 20.1726 18.8929 20.4314 18.8929C21.5168 18.8929 22.3995 19.7766 22.3995 20.8611C22.3995 21.9465 21.5168 22.8292 20.4314 22.8292C19.347 22.8292 18.4633 21.9465 18.4633 20.8611C18.4633 20.5757 18.5263 20.3051 18.6355 20.06L16.7806 18.2051H5.46193V19.8475H11.5729C11.8652 19.1271 12.5717 18.6174 13.3954 18.6174C14.4808 18.6174 15.3635 19.5001 15.3635 20.5855C15.3635 21.67 14.4808 22.5536 13.3954 22.5536C12.5717 22.5536 11.8652 22.0439 11.5729 21.3236H5.46193V24.6497H34.5389ZM28.0579 14.5385C28.0579 14.2679 27.8365 14.0465 27.5658 14.0465C27.2942 14.0465 27.0738 14.2679 27.0738 14.5385C27.0738 14.8101 27.2942 15.0305 27.5658 15.0305C27.8365 15.0305 28.0579 14.8101 28.0579 14.5385ZM27.3425 20.8611C27.3425 20.5904 27.122 20.369 26.8504 20.369C26.5788 20.369 26.3584 20.5904 26.3584 20.8611C26.3584 21.1327 26.5788 21.3531 26.8504 21.3531C27.122 21.3531 27.3425 21.1327 27.3425 20.8611ZM20.9235 20.8611C20.9235 20.5904 20.703 20.369 20.4314 20.369C20.1608 20.369 19.9394 20.5904 19.9394 20.8611C19.9394 21.1327 20.1608 21.3531 20.4314 21.3531C20.703 21.3531 20.9235 21.1327 20.9235 20.8611ZM20.2218 10.3818C20.2218 10.1102 20.0004 9.88979 19.7298 9.88979C19.4582 9.88979 19.2378 10.1102 19.2378 10.3818C19.2378 10.6524 19.4582 10.8738 19.7298 10.8738C20.0004 10.8738 20.2218 10.6524 20.2218 10.3818ZM14.3804 8.21591C14.3804 7.94529 14.16 7.72388 13.8884 7.72388C13.6168 7.72388 13.3964 7.94529 13.3964 8.21591C13.3964 8.48751 13.6168 8.70794 13.8884 8.70794C14.16 8.70794 14.3804 8.48751 14.3804 8.21591ZM13.8874 20.5855C13.8874 20.3139 13.667 20.0935 13.3954 20.0935C13.1248 20.0935 12.9034 20.3139 12.9034 20.5855C12.9034 20.8561 13.1248 21.0775 13.3954 21.0775C13.667 21.0775 13.8874 20.8561 13.8874 20.5855Z" fill="#092D47"/>
<path d="M34.9815 34.6861C35.3889 34.6861 35.7195 35.0167 35.7195 35.4241C35.7195 35.8325 35.3889 36.1622 34.9815 36.1622H32.7673C32.3599 36.1622 32.0293 35.8325 32.0293 35.4241C32.0293 35.0167 32.3599 34.6861 32.7673 34.6861H34.9815Z" fill="#092D47"/>
<path d="M27.5658 14.0464C27.8364 14.0464 28.0578 14.2679 28.0578 14.5385C28.0578 14.8101 27.8364 15.0305 27.5658 15.0305C27.2942 15.0305 27.0737 14.8101 27.0737 14.5385C27.0737 14.2679 27.2942 14.0464 27.5658 14.0464Z" fill="#3DD0F2"/>
<path d="M26.8504 20.369C27.122 20.369 27.3425 20.5904 27.3425 20.861C27.3425 21.1326 27.122 21.3531 26.8504 21.3531C26.5788 21.3531 26.3584 21.1326 26.3584 20.861C26.3584 20.5904 26.5788 20.369 26.8504 20.369Z" fill="#3DD0F2"/>
<path d="M20.431 20.369C20.7026 20.369 20.923 20.5904 20.923 20.861C20.923 21.1326 20.7026 21.3531 20.431 21.3531C20.1604 21.3531 19.939 21.1326 19.939 20.861C19.939 20.5904 20.1604 20.369 20.431 20.369Z" fill="#3DD0F2"/>
<path d="M19.7293 9.88977C19.9999 9.88977 20.2214 10.1102 20.2214 10.3818C20.2214 10.6524 19.9999 10.8738 19.7293 10.8738C19.4577 10.8738 19.2373 10.6524 19.2373 10.3818C19.2373 10.1102 19.4577 9.88977 19.7293 9.88977Z" fill="#3DD0F2"/>
<path d="M17.8596 34.6861C18.267 34.6861 18.5977 35.0167 18.5977 35.4241C18.5977 35.8325 18.267 36.1622 17.8596 36.1622H5.16529C4.75789 36.1622 4.42725 35.8325 4.42725 35.4241C4.42725 35.0167 4.75789 34.6861 5.16529 34.6861H17.8596Z" fill="#092D47"/>
<path d="M13.888 7.72388C14.1596 7.72388 14.3801 7.94529 14.3801 8.21591C14.3801 8.48751 14.1596 8.70794 13.888 8.70794C13.6164 8.70794 13.396 8.48751 13.396 8.21591C13.396 7.94529 13.6164 7.72388 13.888 7.72388Z" fill="#3DD0F2"/>
<path d="M13.3953 20.0935C13.6669 20.0935 13.8874 20.3139 13.8874 20.5855C13.8874 20.8561 13.6669 21.0775 13.3953 21.0775C13.1247 21.0775 12.9033 20.8561 12.9033 20.5855C12.9033 20.3139 13.1247 20.0935 13.3953 20.0935Z" fill="#3DD0F2"/>
</g>
<defs>
<clipPath id="clip0_191_2087">
<rect width="40" height="40" fill="white"/>
</clipPath>
</defs>
</svg>
