<svg width="32" height="40" viewBox="0 0 32 40" fill="none" xmlns="http://www.w3.org/2000/svg">
<path d="M32 29.4334C32 37.6768 24.8361 40 16 40C7.16391 40 0 37.6768 0 29.4334C0 21.189 7.16391 10.1455 16 10.1455C24.8361 10.1455 32 21.1895 32 29.4334Z" fill="#2C2963"/>
<path d="M15.6414 9.61812H16.0868H18.2515L23.4046 3.60737V1.30604H19.842V0H16.0868H15.6414H11.8867V1.30604H8.32422V3.60737L13.4782 9.61812H15.6414Z" fill="#2C2963"/>
<path d="M9.21572 26.0774C8.89458 26.0332 8.62035 25.928 8.40725 25.7536C8.10483 25.5061 7.97523 25.1603 7.97523 24.8009V24.5698C7.97523 24.2168 8.10827 23.8772 8.40976 23.6348C8.70074 23.4009 9.10576 23.2917 9.59086 23.2917H10.3911C11.2634 20.1315 13.9067 18.2456 17.431 18.2456C19.1481 18.2456 20.5479 18.6396 21.5314 19.2513C22.5072 19.8583 23.1163 20.7134 23.1163 21.63C23.1163 22.417 22.5882 22.9503 22.1262 23.2493C21.8897 23.4023 21.6483 23.5097 21.452 23.572C21.3552 23.6027 21.2584 23.6259 21.1717 23.6353C21.1297 23.6398 21.0753 23.6428 21.0178 23.6355C20.98 23.6307 20.8456 23.6117 20.7441 23.4927L20.7359 23.483L20.7283 23.4729C20.2993 22.8949 19.8784 22.4777 19.3754 22.2008C18.8753 21.9255 18.2647 21.7728 17.4316 21.7728C16.7162 21.7728 16.1114 21.9576 15.6305 22.2929C15.2793 22.5378 14.9832 22.8707 14.7565 23.2916H18.1273C18.6121 23.2916 19.0169 23.4009 19.3078 23.6349C19.6091 23.8772 19.7424 24.2167 19.7424 24.5697V24.8008C19.7424 25.1603 19.6126 25.506 19.3103 25.7534C19.0184 25.9923 18.6118 26.1016 18.1273 26.1016H14.2589V26.6947H18.1273C18.6121 26.6947 19.0168 26.8041 19.3077 27.0378C19.609 27.2799 19.7424 27.6191 19.7424 27.9718V28.204C19.7424 28.5571 19.6091 28.8965 19.3075 29.1386C19.0166 29.3722 18.6118 29.481 18.1273 29.481H14.7577C15.2994 30.4783 16.2706 31.0459 17.5311 31.0459C18.3606 31.0459 18.9667 30.8831 19.4544 30.5924C19.9451 30.2999 20.3475 29.8593 20.7389 29.2506L20.7549 29.2257L20.7745 29.2037C20.8662 29.101 20.9812 29.0746 21.0304 29.066C21.0907 29.0556 21.1482 29.0564 21.1937 29.0599C21.2866 29.0668 21.3889 29.0893 21.4898 29.1196C21.6943 29.1811 21.9423 29.2898 22.1837 29.4444C22.6547 29.7458 23.1909 30.285 23.1909 31.0736C23.1909 31.8918 22.6696 32.7752 21.7258 33.438C20.7733 34.107 19.3666 34.5741 17.5061 34.5741C15.6422 34.5741 14.0274 34.0879 12.7789 33.1602C11.6012 32.2853 10.7712 31.0335 10.363 29.4806H10.3601H10.3572H10.3543H10.3515H10.3486H10.3457H10.3427H10.3398H10.3369H10.334H10.331H10.3281H10.3251H10.3222H10.3192H10.3162H10.3133H10.3103H10.3073H10.3043H10.3013H10.2983H10.2953H10.2923H10.2892H10.2862H10.2832H10.2801H10.2771H10.2741H10.271H10.2679H10.2649H10.2618H10.2588H10.2557H10.2526H10.2495H10.2464H10.2433H10.2402H10.2371H10.234H10.2309H10.2278H10.2247H10.2216H10.2185H10.2154H10.2123H10.2091H10.206H10.2029H10.1997H10.1966H10.1935H10.1903H10.1872H10.184H10.1809H10.1777H10.1746H10.1714H10.1683H10.1651H10.162H10.1588H10.1557H10.1525H10.1493H10.1462H10.143H10.1399H10.1367H10.1335H10.1304H10.1272H10.1241H10.1209H10.1177H10.1146H10.1114H10.1082H10.1051H10.1019H10.0988H10.0956H10.0924H10.0893H10.0861H10.083H10.0798H10.0767H10.0735H10.0704H10.0672H10.0641H10.0609H10.0578H10.0546H10.0515H10.0484H10.0452H10.0421H10.039H10.0359H10.0327H10.0296H10.0265H10.0234H10.0203H10.0172H10.0141H10.011H10.0079H10.0048H10.0017H9.9986H9.99552H9.99245H9.98937H9.9863H9.98324H9.98018H9.97712H9.97407H9.97103H9.96799H9.96495H9.96192H9.95889H9.95587H9.95286H9.94985H9.94684H9.94384H9.94085H9.93786H9.93488H9.9319H9.92894H9.92597H9.92302H9.92007H9.91712H9.91419H9.91126H9.90833H9.90541H9.90251H9.8996H9.89671H9.89382H9.89094H9.88807H9.8852H9.88234H9.87949H9.87665H9.87382H9.87099H9.86817H9.86537H9.86256H9.85977H9.85699H9.85421H9.85145H9.84869H9.84594H9.8432H9.84047H9.83775H9.83504H9.83234H9.82964H9.82696H9.82429H9.82163H9.81897H9.81633H9.8137H9.81108H9.80846H9.80586H9.80327H9.80069H9.79812H9.79556H9.79301H9.79048H9.78795H9.78544H9.78294H9.78044H9.77796H9.7755H9.77304H9.77059H9.76816H9.76574H9.76333H9.76094H9.75855H9.75618H9.75382H9.75148H9.74914H9.74682H9.74452H9.74222H9.73994H9.73767H9.73542H9.73318H9.73095H9.72873H9.72653H9.72435H9.72217H9.72001H9.71787H9.71574H9.71362H9.71152H9.70944H9.70736H9.7053H9.70326H9.70123H9.69922H9.69722H9.69524H9.69327H9.69132H9.68939H9.68746H9.68556H9.68367H9.6818H9.67994H9.6781H9.67627H9.67446H9.67267H9.6709H9.66914H9.66739H9.66567H9.66396H9.66227H9.66059H9.65894H9.6573H9.65567H9.65407H9.65248H9.65091H9.64936H9.64782H9.64631H9.64481H9.64333H9.64187H9.64042H9.639H9.63759H9.6362H9.63483H9.63348H9.63215H9.63084H9.62955H9.62827H9.62702H9.62578H9.62457H9.62337H9.6222H9.62104H9.61991H9.61879H9.61769H9.61662H9.61556H9.61453H9.61351H9.61252H9.61155H9.61059H9.60966H9.60875H9.60786H9.607H9.60615H9.60533H9.60452H9.60374H9.60298H9.60224H9.60153H9.60083H9.60016H9.59951H9.59888H9.59828H9.59769H9.59713H9.5966H9.59608H9.59559H9.59512H9.59468H9.59425H9.59386H9.59348H9.59313H9.5928H9.59249H9.59221H9.59196H9.59172H9.59152H9.59133H9.59117H9.59103H9.59092H9.59084H9.59077H9.59074C9.10572 29.4806 8.70077 29.3716 8.4098 29.138C8.10825 28.8958 7.9751 28.5565 7.9751 28.2036V27.9714C7.9751 27.6187 8.10822 27.2794 8.40969 27.0372C8.70063 26.8035 9.10559 26.6944 9.59072 26.6944H10.0836V26.1012H9.59086V26.1017L9.21572 26.0774ZM9.21572 26.0774V26.1017H9.59072L9.21572 26.0774Z" fill="#092D47" stroke="white" stroke-width="0.75"/>
</svg>
