<svg width="16" height="16" viewBox="0 0 16 16" fill="none" xmlns="http://www.w3.org/2000/svg">
<path d="M14.5632 7.14249H8.85745V1.43677C8.85745 0.963118 8.47356 0.579224 7.99991 0.579224C7.52626 0.579224 7.14237 0.963118 7.14237 1.43677V7.14249H1.43665C0.962996 7.14249 0.579102 7.52638 0.579102 8.00003C0.579102 8.47368 0.962996 8.85758 1.43665 8.85758H7.14237V14.5633C7.14237 15.0369 7.52626 15.4208 7.99991 15.4208C8.47356 15.4208 8.85745 15.0369 8.85745 14.5633V8.85758H14.5632C15.0368 8.85758 15.4207 8.47368 15.4207 8.00003C15.4207 7.52638 15.0368 7.14249 14.5632 7.14249Z" fill="#092D47"/>
</svg>
