<svg width="40" height="40" viewBox="0 0 40 40" fill="none" xmlns="http://www.w3.org/2000/svg">
<path d="M0 36.073C0 37.1821 0.899406 38.082 2.00903 38.082H37.9907C39.1008 38.082 40 37.1821 40 36.073C40 34.9635 39.1008 34.0637 37.9907 34.0637H2.00903C0.899406 34.0637 0 34.9635 0 36.073Z" fill="#2C2963"/>
<path d="M2.57275 3.71001L2.57275 32.0547H9.29856L9.29856 3.71001C9.29856 2.72108 8.49625 1.91796 7.5061 1.91796H4.36538C3.37523 1.91796 2.57275 2.721 2.57275 3.71001Z" fill="#2C2963"/>
<path d="M16.8819 9.25042H13.7413C12.7511 9.25042 11.9487 10.0539 11.9487 11.044L11.9487 32.0547H18.6746V11.044C18.6745 10.0539 17.8721 9.25042 16.8819 9.25042ZM16.6653 11.2598V30.0454H13.9578L13.9578 11.2599H16.6653V11.2598Z" fill="#092D47"/>
<path d="M21.3247 3.71001V32.0547H28.0506V3.71001C28.0506 2.72108 27.2481 1.91796 26.258 1.91796H23.1175C22.1271 1.91796 21.3247 2.721 21.3247 3.71001ZM26.0413 3.92699V30.0454H23.3338V3.92699H26.0413Z" fill="#2C2963"/>
<path d="M30.7007 14.4251V32.0547H37.4266V14.4251C37.4266 13.4361 36.6241 12.6331 35.6339 12.6331H32.4936C31.5033 12.6331 30.7007 13.4361 30.7007 14.4251Z" fill="#092D47"/>
</svg>
