<svg width="40" height="40" viewBox="0 0 40 40" fill="none" xmlns="http://www.w3.org/2000/svg">
<path d="M36.1183 5.44803C29.0932 4.58781 23.5018 2.58065 21.2079 0.430108C20.6344 -0.143369 19.7742 -0.143369 19.2007 0.430108C16.9068 2.58065 11.3154 4.58781 4.29032 5.44803C3.57348 5.5914 3 6.16487 3 6.88172V15.7706C3 22.3656 5.86738 28.6738 11.0287 32.8315L19.3441 39.7133C19.6308 40 19.9176 40 20.2043 40C20.491 40 20.9211 39.8566 21.0645 39.7133L29.3799 32.8315C34.5412 28.6738 37.4086 22.3656 37.4086 15.7706V6.88172C37.4086 6.16487 36.8351 5.5914 36.1183 5.44803ZM20.2043 7.16846C20.2043 7.16846 28.5 14.8082 28.5 8.5C28.5 2.19176 13.8961 7.16846 20.2043 7.16846C26.5125 7.16846 16.5 2.19176 16.5 8.5C16.5 14.8082 20.2043 7.16846 20.2043 7.16846Z" fill="#2C2963"/>
<path d="M19.2632 17.625C19.027 17.625 18.8617 17.5514 18.7583 17.4531C18.6566 17.3565 18.5855 17.2088 18.5855 17C18.5855 16.7912 18.6566 16.6435 18.7583 16.5469C18.8617 16.4486 19.027 16.375 19.2632 16.375H22.4211C23.1323 16.375 23.7564 16.1486 24.2056 15.7219C24.6566 15.2935 24.9013 14.6912 24.9013 14C24.9013 13.3088 24.6566 12.7065 24.2056 12.2781C23.8323 11.9234 23.3381 11.7072 22.7736 11.6443C22.7037 11.1025 22.4721 10.6312 22.1004 10.2781C21.6512 9.85136 21.027 9.625 20.3158 9.625C19.6046 9.625 18.9804 9.85136 18.5312 10.2781C18.1036 10.6843 17.8614 11.2468 17.8375 11.8932C15.5037 12.4383 13.625 14.5064 13.625 17C13.625 20.025 16.127 22.375 19.2632 22.375H21.3684C21.6046 22.375 21.7699 22.4486 21.8733 22.5469C21.975 22.6435 22.0461 22.7912 22.0461 23C22.0461 23.2088 21.975 23.3565 21.8733 23.4531C21.7699 23.5514 21.6046 23.625 21.3684 23.625H18.2105C17.4993 23.625 16.8752 23.8514 16.4259 24.2781C15.975 24.7065 15.7303 25.3088 15.7303 26C15.7303 26.6912 15.975 27.2935 16.4259 27.7219C16.7993 28.0766 17.2934 28.2928 17.858 28.3557C17.9279 28.8975 18.1595 29.3688 18.5312 29.7219C18.9804 30.1486 19.6046 30.375 20.3158 30.375C21.027 30.375 21.6512 30.1486 22.1004 29.7219C22.528 29.3157 22.7701 28.7532 22.7941 28.1068C25.1279 27.5617 27.0066 25.4936 27.0066 23C27.0066 19.975 24.5045 17.625 21.3684 17.625H19.2632Z" fill="#092D47" stroke="white" stroke-width="0.75"/>
</svg>
