<svg width="30" height="24" viewBox="0 0 30 24" fill="none" xmlns="http://www.w3.org/2000/svg">
<path d="M12 4.03406V19.2891L12.0047 19.2938C12.0609 20.3344 12.6469 21.2297 13.5 21.7219V23.25C13.5 23.4937 13.5375 23.7328 13.6125 23.9109L9.375 22.5422L5.11406 23.9625C4.88437 24.0375 4.63219 23.9578 4.43625 23.8172C4.24078 23.6766 4.125 23.4891 4.125 23.25V21.75C4.125 21.5203 4.22859 21.3047 4.40625 21.1641L6.75 19.2891V15.4828L0.965625 17.2172C0.738281 17.2875 0.492656 17.2453 0.302297 17.1C0.112078 16.9594 0 16.7391 0 16.5V13.5C0 13.2375 0.138234 12.9937 0.364125 12.8578L6.75 9.02344V4.03406C6.75 2.56312 7.94063 0 9.375 0C10.8516 0 12 2.56312 12 4.03406ZM13.5 8.25C13.5 7.00781 14.5078 6 15.75 6H27.75C28.9922 6 30 7.00781 30 8.25V18.75C30 19.7297 29.3719 20.5641 28.5 20.8734V22.875C28.5 23.4984 27.9984 24 27.375 24H26.625C26.0016 24 25.5 23.4984 25.5 22.875V21H18V22.875C18 23.4984 17.4984 24 16.875 24H16.125C15.5016 24 15 23.4984 15 22.875V20.8734C14.1281 20.5641 13.5 19.7297 13.5 18.75V8.25ZM17.2406 11.9391L16.5 14.25H27L26.2594 11.9391C26.1047 11.5312 25.7297 11.25 25.2984 11.25H18.2016C17.7703 11.25 17.3953 11.5312 17.2406 11.9391ZM26.625 18.75C27.2484 18.75 27.75 18.2484 27.75 17.625C27.75 17.0016 27.2484 16.5 26.625 16.5C26.0016 16.5 25.5 17.0016 25.5 17.625C25.5 18.2484 26.0016 18.75 26.625 18.75ZM16.875 16.5C16.2516 16.5 15.75 17.0016 15.75 17.625C15.75 18.2484 16.2516 18.75 16.875 18.75C17.4984 18.75 18 18.2484 18 17.625C18 17.0016 17.4984 16.5 16.875 16.5Z" fill="#CCCCCC"/>
</svg>
