<svg width="32" height="22" viewBox="0 0 32 22" fill="none" xmlns="http://www.w3.org/2000/svg">
<path d="M32 0V2H13V17H19.1562C19.6016 15.2812 21.1484 14 23 14C24.8516 14 26.3984 15.2812 26.8438 17H28V12H30V19H26.8438C26.3984 20.7188 24.8516 22 23 22C21.1484 22 19.6016 20.7188 19.1562 19H10.8438C10.3984 20.7188 8.85156 22 7 22C5.14844 22 3.60156 20.7188 3.15625 19H0V10.8438L0.0625 10.6875L2.0625 4.6875L2.28125 4H11V0H32ZM31 4V6H22V4H31ZM11 6H3.71875L2 11.125V17H3.15625C3.60156 15.2812 5.14844 14 7 14C8.85156 14 10.3984 15.2812 10.8438 17H11V6ZM30 8V10H24V8H30ZM23 16C21.8828 16 21 16.8828 21 18C21 19.1172 21.8828 20 23 20C24.1172 20 25 19.1172 25 18C25 16.8828 24.1172 16 23 16ZM7 16C5.88281 16 5 16.8828 5 18C5 19.1172 5.88281 20 7 20C8.11719 20 9 19.1172 9 18C9 16.8828 8.11719 16 7 16Z" fill="#092D47"/>
</svg>
